<svg id="Layer_2" enable-background="new 0 0 64 64" height="512" viewBox="0 0 64 64" width="512" xmlns="http://www.w3.org/2000/svg"><path d="m9.192 16.99h51.656v35.276h-51.656z" fill="#efc36a"/><path d="m60.849 61.21h-51.657c-.276 0-.5-.224-.5-.5v-43.72c0-.276.224-.5.5-.5h51.656c.276 0 .5.224.5.5v43.72c.001.277-.223.5-.499.5zm-51.157-1h50.656v-42.72h-50.656z" fill="#63312d"/><path d="m9.192 52.266h51.656v8.444h-51.656z" fill="#db785a"/><path d="m60.849 61.21h-51.657c-.276 0-.5-.224-.5-.5v-8.444c0-.276.224-.5.5-.5h51.656c.276 0 .5.224.5.5v8.444c.001.277-.223.5-.499.5zm-51.157-1h50.656v-7.444h-50.656z" fill="#63312d"/><path d="m3.151 16.99h51.656v35.276h-51.656z" fill="#f9dd9d"/><path d="m5.151 18.99h49.657v-2h-51.657v35.276h2z" fill="#ffeecf"/><path d="m54.808 61.21h-51.657c-.276 0-.5-.224-.5-.5v-43.72c0-.276.224-.5.5-.5h51.656c.276 0 .5.224.5.5v43.72c.001.277-.223.5-.499.5zm-51.157-1h50.656v-42.72h-50.656z" fill="#63312d"/><path d="m3.151 52.266h51.656v8.444h-51.656z" fill="#f9a287"/><path d="m3.151 52.266h2v8.444h-2z" fill="#ffc8bb"/><path d="m54.808 61.21h-51.657c-.276 0-.5-.224-.5-.5v-8.444c0-.276.224-.5.5-.5h51.656c.276 0 .5.224.5.5v8.444c.001.277-.223.5-.499.5zm-51.157-1h50.656v-7.444h-50.656z" fill="#63312d"/><path d="m43.168 29.375v-11.862c0-7.852-6.364-14.219-14.218-14.219-7.851 0-14.216 6.367-14.216 14.219 0 .019.002.04.002.059v11.802c-3.862 0-6.991 3.129-6.991 6.992 0 3.861 3.129 6.992 6.991 6.992h28.432c3.847-.018 6.962-3.141 6.962-6.992 0-3.853-3.115-6.972-6.962-6.991z" fill="#f9a287"/><path d="m9.808 37.87c0-3.862 3.13-6.992 6.989-6.992v-11.803c0-.02 0-.038 0-.06 0-7.852 6.366-14.218 14.218-14.218 2.673 0 5.166.752 7.303 2.037-2.503-2.197-5.774-3.541-9.367-3.541-7.851 0-14.216 6.367-14.216 14.219 0 .019.002.04.002.059v11.802c-3.862 0-6.991 3.129-6.991 6.992 0 2.782 1.628 5.174 3.977 6.3-1.184-1.25-1.915-2.935-1.915-4.795z" fill="#ffc8bb"/><path d="m14.736 43.857c-4.131 0-7.491-3.361-7.491-7.492 0-3.963 3.093-7.217 6.991-7.475v-11.318c-.002-8.175 6.6-14.778 14.714-14.778 8.115 0 14.718 6.603 14.718 14.719v11.381c3.882.275 6.962 3.528 6.962 7.471 0 4.112-3.346 7.472-7.459 7.492zm14.214-40.063c-7.563 0-13.716 6.154-13.716 13.719l.002 11.861c0 .276-.224.5-.5.5-3.579 0-6.491 2.912-6.491 6.492s2.912 6.492 6.491 6.492h28.432c3.562-.017 6.462-2.929 6.462-6.492 0-3.562-2.9-6.473-6.464-6.49-.275-.001-.498-.225-.498-.5v-11.863c0-7.565-6.154-13.719-13.718-13.719z" fill="#63312d"/><path d="m43.168 17.513c0 7.851-6.364 14.216-14.218 14.216-7.851 0-14.216-6.366-14.216-14.216 0-7.852 6.365-14.219 14.216-14.219 7.854 0 14.218 6.367 14.218 14.219z" fill="#f9dd9d"/><path d="m38.005 6.546-.11.212s-6.539 10.019-20.862 13.051c-.661.137-1.336.261-2.034.374-.076-.386-.138-.771-.174-1.171-.065-.498-.088-.999-.088-1.497 0-7.849 6.363-14.225 14.212-14.225.213 0 .424 0 .635.012 3.193.15 6.114 1.336 8.421 3.244z" fill="#f9a287"/><path d="m38.005 6.546-.11.212s-6.539 10.019-20.862 13.051c-.661.137-1.336.261-2.034.374-.076-.386-.138-.771-.174-1.171-.065-.498-.088-.999-.088-1.497 0-7.849 6.363-14.225 14.212-14.225.213 0 .424 0 .635.012 3.193.15 6.114 1.336 8.421 3.244z" fill="#f9a287"/><path d="m16.902 19.012c-.064-.498-.09-.999-.09-1.497 0-7.512 5.831-13.657 13.209-14.176-.146-.01-.292-.031-.438-.037-.211-.012-.422-.012-.635-.012-7.849 0-14.212 6.376-14.212 14.225 0 .498.022.999.088 1.497.036.4.098.785.174 1.171.693-.112 1.365-.234 2.022-.372-.044-.265-.093-.526-.118-.799z" fill="#ffc8bb"/><path d="m37.992 6.574-.102.178s-1.744 2.662-5.386 5.656l.005.036s4.463 3.855 10.63 4.47c-.175-4.166-2.144-7.855-5.147-10.34z" fill="#f9a287"/><path d="m28.95 32.229c-8.114 0-14.716-6.602-14.716-14.716 0-8.116 6.602-14.719 14.716-14.719 8.115 0 14.718 6.603 14.718 14.719 0 8.115-6.603 14.716-14.718 14.716zm0-28.435c-7.563 0-13.716 6.154-13.716 13.719 0 7.563 6.153 13.716 13.716 13.716 7.564 0 13.718-6.153 13.718-13.716 0-7.565-6.154-13.719-13.718-13.719z" fill="#63312d"/><path d="m14.995 20.68c-.235 0-.444-.167-.49-.405-.179-.923-.27-1.853-.27-2.762 0-8.116 6.602-14.719 14.716-14.719 3.418 0 6.748 1.198 9.374 3.372.187.155.236.422.116.633l-.116.201c-.088.137-7.476 11.217-23.253 13.675-.026.003-.052.005-.077.005zm13.955-16.886c-7.563 0-13.716 6.154-13.716 13.719 0 .689.056 1.392.167 2.094 13.889-2.347 20.929-11.526 21.943-12.944-2.391-1.853-5.354-2.869-8.394-2.869z" fill="#63312d"/><path d="m43.14 17.414c-.017 0-.033-.001-.05-.002-6.252-.624-10.72-4.428-10.907-4.589-.092-.08-.152-.19-.169-.311-.023-.172.039-.379.173-.49 3.531-2.904 5.268-5.518 5.285-5.544l.085-.151c.073-.128.199-.218.345-.244.147-.028.295.013.409.106 3.211 2.658 5.153 6.56 5.328 10.705.006.145-.051.285-.156.384-.093.088-.216.136-.343.136zm-9.862-5c1.204.907 4.76 3.313 9.325 3.934-.297-3.457-1.911-6.69-4.504-9.021-.555.771-2.126 2.795-4.821 5.087z" fill="#63312d"/><path d="m50.884 52.266-.781-6.618c0-7.813-6.334-14.147-14.147-14.147h-14.012c-7.813 0-14.147 6.334-14.147 14.147l-.783 6.618z" fill="#82d9ff"/><path d="m9.114 52.266.761-6.3c0-6.841 5.547-12.388 12.388-12.388h17.53c1.819 0 3.544.404 5.104 1.11-2.439-1.991-5.55-3.187-8.942-3.187h-14.011c-7.813 0-14.147 6.334-14.147 14.147l-.783 6.618z" fill="#caf4ff"/><path d="m28.95 36.366c3.391 0 6.297-1.974 7.697-4.823-.23-.014-.459-.042-.692-.042h-14.011c-.232 0-.459.028-.689.039 1.4 2.852 4.307 4.826 7.695 4.826z" fill="#f9dd9d"/><g fill="#63312d"><path d="m28.95 36.866c-3.478 0-6.598-1.957-8.144-5.106-.074-.151-.067-.33.019-.475.085-.145.239-.237.407-.245l.248-.016c.154-.012.308-.023.465-.023h14.011c.168 0 .334.013.5.026l.222.017c.167.01.318.103.402.248s.09.322.017.472c-1.548 3.147-4.669 5.102-8.147 5.102zm-6.871-4.865c1.469 2.402 4.038 3.865 6.872 3.865 2.835 0 5.405-1.462 6.875-3.865z"/><path d="m50.884 52.766h-43.87c-.143 0-.279-.061-.374-.168-.095-.106-.14-.249-.123-.391l.783-6.618c-.003-8.018 6.567-14.588 14.644-14.588h14.011c8.077 0 14.647 6.571 14.647 14.647l.778 6.56c.017.142-.028.284-.123.391-.094.106-.231.167-.373.167zm-43.308-1h42.745l-.715-6.06c-.003-7.583-6.125-13.706-13.651-13.706h-14.011c-7.525 0-13.647 6.122-13.647 13.647z"/><path d="m15.618 46.647h1v5.619h-1z"/><path d="m41.341 46.647h1v5.619h-1z"/></g><path d="m7.951 54.241 3.6 2.246-3.6 2.249z" fill="#f8f3f3"/><path d="m7.951 59.236c-.083 0-.167-.021-.242-.063-.159-.088-.258-.256-.258-.438v-4.496c0-.182.099-.349.257-.437s.354-.083.507.013l3.6 2.246c.146.091.235.251.235.424 0 .172-.089.333-.235.424l-3.6 2.25c-.08.052-.172.077-.264.077zm.5-4.094v2.692l2.156-1.347z" fill="#63312d"/><path d="m37.257 34.836c0 4.571-3.706 8.278-8.277 8.278s-8.278-3.707-8.278-8.278 3.707-8.278 8.278-8.278 8.277 3.707 8.277 8.278z" fill="#f9a287"/><path d="m28.979 43.614c-4.84 0-8.778-3.938-8.778-8.778s3.938-8.778 8.778-8.778 8.777 3.938 8.777 8.778-3.937 8.778-8.777 8.778zm0-16.555c-4.289 0-7.778 3.489-7.778 7.778s3.489 7.778 7.778 7.778 7.777-3.489 7.777-7.778-3.488-7.778-7.777-7.778z" fill="#63312d"/><path d="m26.795 30.814 6.444 4.02-6.444 4.026z" fill="#f8f3f3"/><path d="m26.795 39.36c-.083 0-.167-.021-.242-.063-.159-.088-.258-.256-.258-.438v-8.046c0-.182.099-.349.257-.437.159-.088.352-.083.507.013l6.444 4.02c.146.091.235.251.235.424 0 .172-.089.333-.235.424l-6.444 4.026c-.08.052-.172.077-.264.077zm.5-7.645v6.243l5-3.124z" fill="#63312d"/></svg>